<?xml version="1.0" standalone="no"?>
<!DOCTYPE svg PUBLIC "-//W3C//DTD SVG 20010904//EN"
 "http://www.w3.org/TR/2001/REC-SVG-20010904/DTD/svg10.dtd">
<svg version="1.0" xmlns="http://www.w3.org/2000/svg"
 width="552.000000pt" height="552.000000pt" viewBox="0 0 552.000000 552.000000"
 preserveAspectRatio="xMidYMid meet">
<metadata>
Created by potrace 1.11, written by Peter Selinger 2001-2013
</metadata>
<g transform="translate(0.000000,552.000000) scale(0.100000,-0.100000)"
fill="#000000" stroke="none">
<path d="M2737 5514 c-1 -1 -24 -4 -52 -7 -86 -9 -159 -40 -245 -101 -47 -34
-347 -256 -375 -279 -15 -11 -637 -476 -660 -493 -192 -138 -652 -488 -689
-522 -64 -61 -107 -130 -137 -217 l-24 -70 0 -1685 c1 -1314 4 -1696 13 -1735
48 -190 206 -345 397 -388 85 -20 3535 -17 3605 2 177 50 312 177 372 350 23
65 23 73 23 526 -1 453 -1 461 -23 525 -67 191 -230 327 -427 356 -27 4 -134
8 -237 8 l-188 1 0 -450 0 -451 -1329 -2 -1329 -3 -1 1339 -2 1339 242 179
c133 98 258 193 279 209 20 17 93 71 161 121 68 50 242 179 386 287 l262 195
238 -177 c131 -97 373 -278 538 -400 165 -123 357 -267 427 -319 l126 -95 -1
-454 c-1 -323 2 -456 10 -461 19 -12 384 -5 448 8 142 28 288 135 352 257 66
125 67 133 68 518 2 392 -3 436 -59 550 -39 79 -107 151 -223 237 -66 48 -251
186 -667 495 -83 62 -155 116 -161 121 -5 4 -62 46 -125 93 -63 47 -241 179
-395 294 -288 215 -332 244 -402 269 -55 19 -185 39 -196 30z"/>
<path d="M2374 2912 l-141 -3 -2 -209 c-1 -194 0 -210 17 -211 28 -1 109 -1
262 0 l145 1 0 210 c0 203 0 210 -20 211 -11 0 -42 1 -70 2 -27 1 -113 1 -191
-1z"/>
<path d="M2909 2912 l-47 -3 0 -210 0 -209 212 0 211 0 0 210 0 210 -25 1
c-128 3 -314 3 -351 1z"/>
<path d="M2408 2282 l-176 -2 1 -210 2 -210 30 -1 c36 -1 305 -1 356 0 l37 1
-2 204 c-1 113 -4 207 -7 210 -9 10 -55 11 -241 8z"/>
<path d="M2878 2282 c-14 -3 -16 -28 -14 -210 l2 -207 212 -3 211 -2 -2 204
c-1 112 -5 208 -9 212 -8 7 -367 12 -400 6z"/>
</g>
</svg>
